<svg xmlns="http://www.w3.org/2000/svg" viewBox="0 0 3049 1080" width="3049" height="1080">
	<style>
		tspan { white-space:pre }
		.shp0 { fill: #dbdbdb } 
		.shp1 { fill: #e5e5e5 } 
		.shp2 { fill: #ffffff } 
	</style>
	<g id="HEKATE -  IPL ">
		<path id="Line" class="shp0" d="M47 627.5L47 636L3018 636L3018 619L47 619L47 627.5Z" />
		<path id="Custom NX Bootloader" fill-rule="evenodd" class="shp1" d="M2158 776L2174 776L2173.98 875.75C2173.97 940.58 2174.32 976.64 2174.98 978.75C2175.6 980.72 2176.99 982.4 2178.5 983C2179.88 983.55 2182.13 983.77 2183.5 983.5C2185.81 983.04 2186.08 983.38 2187 988C2187.55 990.75 2188.01 993.79 2188.02 994.75C2188.03 995.98 2186.92 996.72 2184.27 997.24C2182.2 997.65 2178.7 997.97 2176.5 997.97C2174.3 997.96 2170.7 997.15 2168.5 996.17C2166.3 995.18 2163.54 993.05 2162.36 991.44C2161.19 989.82 2159.73 986.7 2159.12 984.5C2158.34 981.69 2158.01 949.97 2158.01 878.25L2158 776ZM2631.75 776L2649 776L2649 994L2635 994L2634.54 990.75C2634.29 988.96 2633.84 984.91 2633 976L2627.65 980.75C2624.7 983.36 2619.64 987.07 2616.4 988.99C2613.15 990.91 2607.57 993.55 2604 994.85C2599.89 996.35 2594.37 997.4 2589 997.7C2583.32 998.03 2578.01 997.66 2573 996.6C2568.88 995.73 2562.57 993.59 2559 991.85C2554.6 989.71 2550.24 986.38 2545.5 981.56C2540.73 976.7 2537.32 972.06 2534.8 966.97C2532.76 962.86 2530.16 955.9 2529.02 951.5C2527.88 947.1 2526.46 939 2525.88 933.5C2525.3 928 2525.1 919.67 2525.45 915C2525.79 910.33 2527.01 902.67 2528.15 898C2529.29 893.33 2532.03 885.67 2534.24 881C2537.59 873.94 2539.81 870.96 2547.38 863.38C2553.43 857.33 2558.52 853.24 2562.5 851.23C2565.8 849.56 2571.43 847.42 2575 846.46C2579.01 845.39 2585.13 844.72 2591 844.72C2598.55 844.72 2602.14 845.25 2608.5 847.34C2612.9 848.78 2619.2 851.77 2622.5 854C2625.8 856.22 2629.4 858.69 2630.5 859.48C2632.49 860.91 2632.5 860.76 2632.13 818.46L2631.75 776ZM2574.5 862.39C2571.75 863.69 2567.59 866.15 2565.25 867.87C2562.91 869.59 2558.92 873.81 2556.39 877.25C2553.85 880.69 2550.66 885.98 2549.3 889C2547.95 892.02 2545.95 897.88 2544.87 902C2543.4 907.62 2542.91 912.77 2542.92 922.5C2542.93 932.89 2543.42 937.41 2545.33 945C2546.65 950.23 2548.69 956.41 2549.87 958.75C2551.04 961.09 2553.52 965.14 2555.37 967.75C2557.22 970.36 2560.93 973.98 2563.62 975.79C2566.3 977.59 2570.97 979.98 2574 981.09C2577.74 982.47 2582.05 983.13 2587.5 983.17C2592.18 983.2 2597.79 982.54 2601 981.58C2604.03 980.67 2608.53 978.75 2611 977.31C2613.47 975.87 2617.3 973.33 2619.5 971.67C2621.7 970.02 2625.42 966.82 2627.76 964.58L2632.03 960.5L2632 876C2622.31 868.86 2617.7 865.87 2615.5 864.75C2613.3 863.64 2609.7 862.06 2607.5 861.26C2605.3 860.45 2600.8 859.5 2597.5 859.13C2594.2 858.77 2588.8 858.82 2585.5 859.25C2582.2 859.68 2577.25 861.09 2574.5 862.39ZM227.75 791.14C233.09 791.06 240.07 791.68 244.25 792.61C248.24 793.49 255.1 795.9 259.5 797.97C263.96 800.06 270.56 804.32 274.42 807.61C278.23 810.85 281.49 813.95 281.66 814.5C281.84 815.05 279.76 817.98 272.13 826.5L270.57 824.25C269.7 823.01 266.41 820.11 263.25 817.81C260.09 815.51 255.25 812.6 252.5 811.36C249.75 810.11 244.8 808.4 241.5 807.54C238.2 806.69 232.35 806 228.5 806.01C224.65 806.02 218.35 806.71 214.5 807.54C210.65 808.37 204.35 810.57 200.5 812.43C196.3 814.45 190.7 818.4 186.5 822.28C182.13 826.33 177.73 831.72 174.78 836.63C172.17 840.97 168.52 849.2 166.63 855C164.75 860.77 162.71 869.55 162.11 874.5C161.5 879.45 161.01 888.23 161.02 894C161.03 899.77 161.66 909.23 162.42 915C163.19 920.77 165.01 929.1 166.48 933.5C167.94 937.9 171.02 945.1 173.32 949.49C176.15 954.89 179.77 959.76 184.5 964.51C188.93 968.95 194.07 972.88 198.5 975.2C202.35 977.22 208.2 979.61 211.5 980.51C215.37 981.56 221.41 982.14 228.5 982.14C236.76 982.13 241.12 981.62 246 980.09C249.57 978.97 255.37 976.35 258.87 974.28C262.38 972.2 268.18 967.8 278.27 958.5L282.62 963.5C285 966.25 286.97 969.06 286.98 969.75C286.99 970.44 283.84 973.81 279.98 977.25C276.11 980.69 270.15 985.2 266.73 987.28C263.3 989.36 258.02 991.99 255 993.12C251.97 994.26 246.57 995.81 243 996.58C239.43 997.34 232.45 997.96 227.5 997.96C222.38 997.96 214.84 997.15 210 996.07C205.32 995.04 199.47 993.39 197 992.4C194.53 991.42 189.18 988.57 185.12 986.06C181.06 983.55 174.75 978.35 171.09 974.5C167.43 970.65 162.09 963.67 159.21 959C156.33 954.33 152.64 946.79 150.99 942.25C149.35 937.71 147.01 929.39 145.8 923.75C143.97 915.24 143.59 910.27 143.57 894.5C143.56 880.63 144.01 873.21 145.24 867C146.17 862.33 148.41 854.22 150.22 849C152.02 843.77 155.53 835.94 158 831.6C160.47 827.25 165.65 820.32 169.5 816.2C173.35 812.08 179.2 806.89 182.5 804.67C185.8 802.44 191.2 799.43 194.5 797.97C197.8 796.52 203.43 794.59 207 793.69C210.57 792.8 214.63 791.88 216 791.67C217.38 791.45 222.66 791.21 227.75 791.14ZM1167 794L1184 794L1193.17 809.75C1198.21 818.41 1209.84 838.1 1219.01 853.5C1228.18 868.9 1242.89 893.65 1251.7 908.5C1260.5 923.35 1272.16 943.49 1277.6 953.25C1283.05 963 1287.62 970.88 1287.77 970.75C1287.92 970.61 1287.58 956.89 1287.02 940.25C1286.46 923.61 1286 883.9 1286 794L1302 794L1302 994L1284.5 993.92L1251 937.34C1232.58 906.23 1214.65 875.99 1211.16 870.14C1207.67 864.29 1199.63 850.27 1193.3 839C1186.97 827.73 1181.39 818.05 1180.89 817.5C1180.33 816.89 1180.23 817.48 1180.63 819C1181 820.38 1181.45 860.31 1182 994L1167 994L1167 794ZM1358 794L1362.38 802.25C1364.78 806.79 1367.88 812.52 1369.25 815C1370.63 817.48 1376.02 827.15 1381.22 836.5C1386.42 845.85 1394.02 859.24 1398.09 866.25C1402.17 873.27 1405.72 879.01 1406 879C1406.28 879 1409.31 873.48 1412.75 866.75C1416.19 860.01 1426.54 841 1452.5 794.5L1460.75 794.25C1466.82 794.07 1469 794.33 1469 795.25C1468.99 795.94 1468.17 797.85 1467.16 799.5C1466.15 801.15 1458.44 814.65 1450.01 829.5C1441.58 844.35 1430.25 864.38 1424.82 874C1418.94 884.42 1415.2 892.11 1415.56 893C1415.9 893.83 1425.97 911.38 1437.95 932C1449.93 952.63 1462.94 975.01 1474 994L1455.5 993.97L1447 978.86C1442.33 970.55 1431.23 950.87 1422.34 935.13C1413.45 919.38 1405.54 905.6 1404.76 904.5C1403.44 902.63 1402.89 903.37 1396.57 915.5C1392.84 922.65 1381.62 943.22 1353.5 993.92L1344.75 993.96C1339.94 993.98 1336 993.77 1336 993.5C1336 993.23 1349.29 969.94 1395.08 890.5L1367.62 843C1352.52 816.88 1340.37 795.16 1340.63 794.75C1340.89 794.34 1344.9 794 1358 794ZM1568.21 793.8L1604.35 794.28C1636.79 794.72 1641.42 794.99 1649.5 796.91C1654.45 798.09 1660.75 800.1 1663.5 801.37C1666.25 802.65 1670.86 805.57 1673.75 807.85C1676.64 810.13 1680.3 813.91 1681.89 816.25C1683.48 818.59 1685.69 823.2 1686.79 826.5C1687.89 829.8 1689.06 834.86 1689.39 837.75C1689.73 840.64 1689.51 846.49 1688.9 850.75C1688.3 855.01 1686.57 861.2 1685.05 864.5C1683.18 868.57 1680.23 872.46 1675.9 876.58C1672.24 880.06 1667.45 883.48 1664.72 884.58C1662.09 885.64 1659.95 886.84 1659.97 887.25C1659.98 887.66 1660.67 888 1661.5 888C1662.33 888 1665.81 888.97 1669.25 890.15C1672.69 891.33 1677.75 893.75 1680.5 895.53C1683.25 897.31 1687.38 900.73 1689.67 903.13C1691.97 905.53 1695.01 909.75 1696.44 912.5C1697.87 915.25 1699.76 920.88 1700.66 925C1701.8 930.27 1702.09 934.73 1701.65 940C1701.3 944.13 1700.3 949.98 1699.41 953C1698.53 956.02 1696.39 961.16 1694.65 964.41C1692.74 967.99 1688.94 972.65 1685 976.25C1681.32 979.6 1675.46 983.63 1671.5 985.52C1667.65 987.36 1660.9 989.86 1656.5 991.09C1648.94 993.2 1646.26 993.34 1568 994L1568.21 793.8ZM1585 882.5C1622.13 881.36 1634.72 880.45 1639.5 879.53C1643.9 878.68 1650.42 876.6 1654 874.91C1657.58 873.23 1662.08 870.19 1664 868.16C1665.92 866.14 1668.61 862.24 1669.96 859.49C1672.06 855.23 1672.42 853.05 1672.46 844.5C1672.49 836.12 1672.13 833.69 1670.2 829.5C1668.93 826.75 1666.46 823 1664.7 821.16C1662.94 819.32 1659.47 816.8 1657 815.55C1654.53 814.3 1650.25 812.54 1647.5 811.64C1644.75 810.74 1638 809.56 1632.5 809.03C1627 808.49 1614.06 808.04 1603.75 808.03L1585 808L1585 882.5ZM1585 980C1640.61 979.33 1644.22 979.08 1650.75 977.15C1654.74 975.97 1659.91 974.1 1662.25 973C1664.59 971.9 1668.75 969.3 1671.5 967.22C1675.32 964.33 1677.45 961.58 1680.5 955.59C1684.46 947.83 1684.5 947.62 1684.5 936.62C1684.5 926.81 1684.2 924.85 1681.95 920C1680.55 916.98 1677.4 912.55 1674.95 910.16C1672.5 907.77 1667.8 904.53 1664.5 902.96C1661.2 901.39 1655.8 899.42 1652.5 898.57C1649.2 897.72 1642.22 896.58 1637 896.03C1631.78 895.48 1617.94 895.03 1606.25 895.02L1585 895L1585 980ZM609.19 806L623 806L623 848L665 848L665 862L623 862L623 911.75C622.99 948.3 623.32 962.84 624.25 966.54C624.94 969.31 626.63 973.25 628 975.3C629.42 977.41 632.45 979.99 635 981.24C638.48 982.95 641.21 983.44 647 983.39C652.31 983.35 656.03 982.7 665 979L667.08 985.75C668.22 989.46 669.01 992.57 668.83 992.64C668.65 992.72 665.13 993.83 661 995.11C655.44 996.83 651.04 997.44 644 997.47C638.77 997.48 632.48 996.92 630 996.21C627.52 995.5 623.25 993.23 620.5 991.17C616.91 988.48 614.58 985.6 612.22 980.96C610.42 977.41 608.51 971.8 607.98 968.5C607.45 965.2 607.01 939.89 607 862L584 862L584 849L607 848L607.04 845.25C607.06 843.74 607.27 840.02 607.52 837C607.76 833.98 608.24 825.76 608.57 818.75L609.19 806ZM2068.18 806L2082 806L2082 848L2123 848L2123 862L2082 862L2081.99 912.75C2081.98 951.65 2082.28 964.55 2083.28 968C2084 970.48 2085.58 973.96 2086.8 975.75C2088.01 977.54 2090.69 979.85 2092.75 980.9C2094.81 981.94 2098.97 983.1 2102 983.49C2105.91 983.98 2109.24 983.7 2113.5 982.51C2116.8 981.59 2120.4 980.6 2121.5 980.31C2123.19 979.87 2123.85 980.74 2125.75 985.89C2127.86 991.63 2127.89 992.05 2126.25 992.91C2125.29 993.41 2120.68 994.81 2116 996.01C2109.3 997.75 2105.81 998.1 2099.5 997.67C2095.1 997.37 2089.81 996.64 2087.75 996.06C2085.69 995.48 2082.09 993.52 2079.75 991.72C2077.41 989.91 2074.12 986.42 2072.43 983.97C2070.75 981.51 2068.54 976.35 2067.54 972.5C2065.92 966.26 2065.68 959.86 2065 862L2043 862L2043 849L2049 849C2052.3 849 2055.45 848.77 2056 848.5C2056.55 848.23 2059.03 848 2066 848L2066.53 832.75C2066.82 824.36 2067.31 814.91 2067.62 811.75L2068.18 806ZM518.75 844.14C520.54 844.06 525.26 844.5 529.25 845.11C533.24 845.73 539.88 847.56 544 849.19C548.13 850.83 553.08 853.1 555 854.24C556.92 855.39 559.51 857.26 562.98 860.5L559.32 865C557.3 867.48 555.4 869.88 555.08 870.35C554.76 870.81 551.13 869.19 547 866.76C542.88 864.32 537.25 861.46 534.5 860.41C530.78 858.99 526.93 858.5 519.48 858.5C510.28 858.5 508.93 858.76 502.98 861.65C499.42 863.37 495.26 866.19 493.75 867.9C492.24 869.6 490.28 873.59 489.41 876.75C488.06 881.64 488.01 883.25 489.09 887.5C489.83 890.37 491.72 893.99 493.54 896C495.28 897.92 499.81 901.15 503.6 903.16C507.4 905.17 514.77 908.45 520 910.45C525.23 912.45 530.85 914.58 532.5 915.19C534.15 915.79 539.31 918.13 543.96 920.39C548.84 922.76 554.7 926.62 557.8 929.5C560.89 932.37 564.31 936.84 565.84 940C568.2 944.88 568.5 946.68 568.5 956C568.5 965.58 568.24 967.06 565.5 972.88C563.59 976.93 560.5 981.17 557 984.53C553.98 987.43 549.02 990.96 546 992.38C542.98 993.8 537.35 995.64 533.5 996.46C529.65 997.29 523.35 997.98 519.5 998C515.65 998.01 508.9 997.35 504.5 996.53C500.1 995.71 493.57 993.89 490 992.49C486.43 991.09 480.57 988.2 477 986.07C473.43 983.93 469.38 981.03 465.5 977.04L468.19 973.27C469.66 971.2 471.69 968.74 472.69 967.82C474.4 966.23 474.83 966.39 480.5 970.63C483.8 973.1 489.2 976.42 492.5 978.01C495.8 979.59 501.65 981.64 505.5 982.55C510.53 983.74 515.18 984.07 522 983.72C529.03 983.36 532.8 982.63 536.5 980.93C539.25 979.66 543.08 977.21 545 975.47C546.99 973.67 549.54 969.76 550.91 966.4C552.78 961.83 553.2 959.37 552.79 955.5C552.49 952.75 551.52 949.04 550.62 947.25C549.73 945.46 547.09 942.19 544.75 939.98C542.41 937.77 537.35 934.43 533.5 932.57C529.65 930.7 522 927.54 516.5 925.53C511 923.52 502.45 919.9 497.5 917.48C491.55 914.56 486.55 911.2 482.75 907.54C479.59 904.49 475.99 899.86 474.75 897.25C472.92 893.39 472.51 890.8 472.53 883.5C472.56 875.66 472.95 873.68 475.53 868.12C477.47 863.96 480.33 860.04 483.75 856.87C486.64 854.19 491.36 850.93 494.25 849.63C497.14 848.32 501.98 846.75 505 846.13C508.02 845.51 511.63 844.84 513 844.64C514.38 844.44 516.96 844.21 518.75 844.14ZM753 844.61C756.58 844.86 761.75 845.55 764.5 846.14C767.25 846.74 772.65 848.74 776.5 850.59C780.35 852.45 785.64 855.55 788.25 857.48C790.86 859.42 795.48 864.04 798.52 867.75C801.55 871.46 805.66 877.88 807.64 882C809.63 886.13 812.17 892.88 813.28 897C814.92 903.08 815.31 907.62 815.33 921C815.35 934.97 815.01 938.72 813.15 945.5C811.93 949.9 809.08 957.33 806.8 962C803.49 968.81 800.96 972.21 794.08 979.11C787.46 985.75 783.79 988.54 778 991.32C773.88 993.3 767.01 995.62 762.75 996.46C758.49 997.31 752.52 998 749.5 998C746.48 998 740.51 997.31 736.25 996.48C731.99 995.64 725.35 993.42 721.5 991.54C717.65 989.67 711.84 985.74 708.58 982.82C705.33 979.89 700.85 975.02 698.64 972C696.42 968.98 693.07 963.13 691.18 959C689.3 954.88 686.88 947.45 685.8 942.5C684.17 935.03 683.91 930.86 684.29 918C684.59 907.64 685.32 900.35 686.49 896C687.45 892.42 689.7 886.35 691.47 882.5C693.25 878.65 696.73 872.8 699.21 869.5C701.7 866.2 705.93 861.65 708.61 859.39C711.3 857.12 715.98 853.91 719 852.24C722.02 850.58 726.75 848.49 729.5 847.61C732.25 846.72 737.2 845.58 740.5 845.08C743.8 844.57 749.42 844.36 753 844.61ZM734 861.59C731.52 862.53 726.86 865.14 723.63 867.4C720.41 869.65 716.28 873.52 714.47 876C712.65 878.48 709.55 883.88 707.58 888C705.62 892.13 703.3 898.88 702.44 903C701.55 907.26 700.88 915.25 700.9 921.5C700.91 927.55 701.36 934.75 701.89 937.5C702.42 940.25 703.61 944.75 704.53 947.5C705.45 950.25 707.61 955.2 709.33 958.5C711.06 961.8 714.95 967.01 717.98 970.07C721.23 973.35 726.17 976.95 730 978.83C734.02 980.81 738.98 982.31 743 982.78C746.58 983.2 752.42 983.19 756 982.77C759.58 982.34 764.75 980.96 767.5 979.69C770.25 978.42 774.57 975.83 777.1 973.94C779.64 972.05 783.09 968.7 784.78 966.5C786.47 964.3 789.29 959.58 791.05 956C792.81 952.42 795.16 946.13 796.28 942C797.82 936.28 798.3 931.41 798.3 921.5C798.3 911.33 797.83 906.76 796.14 900.5C794.96 896.1 792.65 889.8 791.02 886.5C789.39 883.2 786.36 878.29 784.28 875.58C782.2 872.88 778.02 868.96 775 866.87C771.98 864.77 767.48 862.34 765 861.45C762.52 860.56 758.01 859.52 754.96 859.15C751.91 858.77 746.96 858.78 743.96 859.17C740.96 859.56 736.48 860.65 734 861.59ZM923.5 844.7C926.8 844.97 931.3 845.63 933.5 846.18C935.7 846.72 939.3 848.19 941.5 849.45C943.7 850.72 947.76 854.17 950.52 857.12C953.33 860.13 956.39 864.71 957.45 867.5C958.5 870.25 959.5 872.61 959.68 872.75C959.85 872.89 963.28 869.74 967.3 865.75C971.31 861.76 977.72 856.41 981.55 853.86C985.37 851.31 990.3 848.48 992.5 847.58C994.7 846.67 999.37 845.47 1002.89 844.92C1007.33 844.21 1011.43 844.24 1016.39 845C1020.3 845.61 1026.16 847.32 1029.41 848.8C1033.04 850.46 1036.9 853.27 1039.41 856.08C1041.66 858.59 1044.79 863.32 1046.38 866.58C1047.96 869.83 1049.93 875.42 1050.76 879C1051.97 884.24 1052.34 895.99 1053 994L1036 994L1036 943.5C1036 901.23 1035.74 891.74 1034.41 885.25C1033.53 880.99 1032.26 876.15 1031.59 874.5C1030.92 872.85 1028.59 869.56 1026.43 867.19C1023.88 864.38 1020.66 862.19 1017.25 860.94C1014.22 859.82 1009.46 859 1006 859C1002.7 859 997.86 859.72 995.25 860.61C992.64 861.49 987.35 864.28 983.5 866.8C979.65 869.33 973.46 874.57 962.97 885.5L963 994L947 994L947 944C947 903.61 946.71 892.51 945.5 886.25C944.67 881.99 942.76 876.08 941.25 873.12C939.72 870.14 936.72 866.37 934.5 864.66C932.3 862.96 928.48 860.98 926 860.27C923.52 859.56 919.14 858.98 916.25 858.99C913.36 858.99 908.64 859.81 905.75 860.81C902.86 861.8 896.94 865.06 892.59 868.06C888.24 871.05 882.27 876.2 873.95 885.5L874 994L858 994L858 848L864.5 848C868.8 848 871.15 848.42 871.43 849.25C871.67 849.94 872.14 855 873.09 870.5L879.8 863.94C883.48 860.33 888.75 855.86 891.5 854C894.25 852.14 898.86 849.58 901.75 848.31C904.64 847.04 909.36 845.6 912.25 845.11C915.14 844.62 920.2 844.43 923.5 844.7ZM1799 844.55C1803.68 844.79 1810.42 845.93 1814 847.09C1817.58 848.24 1823.16 850.6 1826.4 852.34C1829.65 854.08 1835.22 858.2 1838.77 861.5C1842.33 864.8 1847.19 870.65 1849.57 874.5C1851.95 878.35 1855.05 884.54 1856.45 888.25C1857.85 891.96 1859.68 898.94 1860.51 903.75C1861.34 908.56 1862.01 916.55 1862.01 921.5C1862 926.45 1861.33 934.33 1860.53 939C1859.73 943.67 1857.7 950.88 1856.02 955C1854.35 959.13 1851.52 964.9 1849.74 967.83C1847.96 970.77 1843.56 976.17 1839.96 979.83C1835.22 984.67 1831.1 987.67 1824.96 990.78C1820.23 993.17 1813.19 995.75 1809 996.63C1803.94 997.69 1798.57 998.04 1792.5 997.71C1786.24 997.38 1780.91 996.35 1775 994.35C1769.61 992.52 1763.95 989.64 1759.53 986.48C1755.7 983.74 1750.13 978.58 1747.16 975C1744.18 971.42 1740.27 965.35 1738.45 961.5C1736.64 957.65 1734.19 951.13 1733.01 947C1731.59 942.04 1730.67 935.26 1730.29 927C1729.93 919.2 1730.18 911.3 1730.95 906C1731.63 901.33 1733.39 893.9 1734.86 889.5C1736.33 885.1 1739.08 879.02 1740.98 876C1742.88 872.98 1747.15 867.64 1750.47 864.14C1753.79 860.64 1758.3 856.52 1760.5 854.98C1762.7 853.44 1767.88 850.82 1772 849.14C1776.13 847.46 1781.97 845.65 1785 845.1C1788.03 844.56 1794.33 844.31 1799 844.55ZM1776.5 863.38C1771.78 865.69 1767.7 868.7 1763.97 872.65C1760.83 875.97 1756.83 881.74 1754.72 886C1752.67 890.13 1750.04 897.33 1748.88 902C1747.08 909.23 1746.83 912.59 1747.21 924.5C1747.59 936.57 1748.05 939.67 1750.54 947C1752.26 952.08 1755.47 958.52 1758.51 963C1761.94 968.05 1765.55 971.88 1769.55 974.74C1772.82 977.06 1778.42 979.9 1782 981.04C1785.91 982.29 1791.29 983.13 1795.5 983.16C1799.35 983.18 1804.53 982.66 1807 981.99C1809.47 981.33 1813.3 979.87 1815.5 978.75C1817.7 977.62 1821.53 975.17 1824 973.3C1826.47 971.43 1830.55 966.88 1833.06 963.2C1835.57 959.51 1838.57 954.02 1839.72 951C1840.87 947.98 1842.59 941.45 1843.53 936.5C1844.8 929.84 1845.09 924.77 1844.67 917C1844.34 911.08 1843.17 903.23 1841.97 899C1840.8 894.88 1838.2 888.35 1836.18 884.5C1834.15 880.65 1830.03 875.01 1827 871.95C1823.75 868.67 1818.85 865.11 1815 863.23C1811.07 861.31 1805.92 859.74 1801.96 859.25C1798.36 858.81 1792.73 858.79 1789.46 859.21C1786.04 859.65 1780.52 861.42 1776.5 863.38ZM1961 844.52C1965.83 844.76 1972.31 845.86 1976 847.06C1979.58 848.23 1985.19 850.6 1988.48 852.34C1991.78 854.08 1997.56 858.42 2001.34 862C2005.12 865.58 2010.15 871.65 2012.53 875.5C2014.9 879.35 2017.83 885.42 2019.04 889C2020.24 892.58 2021.83 898.88 2022.58 903C2023.32 907.13 2023.94 915.23 2023.96 921C2023.97 926.77 2023.51 934.42 2022.93 938C2022.35 941.58 2020.75 947.88 2019.38 952C2018.01 956.13 2015.02 962.65 2012.74 966.5C2010.46 970.35 2005.65 976.45 2002.05 980.06C1997.31 984.81 1993.15 987.79 1987 990.83C1982.33 993.14 1975.35 995.7 1971.5 996.5C1967.65 997.31 1961.58 997.97 1958 997.97C1954.42 997.97 1948.35 997.31 1944.5 996.5C1940.65 995.7 1933.9 993.27 1929.5 991.11C1923.06 987.95 1919.89 985.51 1913.25 978.59C1907.78 972.89 1903.87 967.73 1901.64 963.25C1899.79 959.54 1897.37 953.8 1896.25 950.5C1895.13 947.2 1893.64 940.23 1892.95 935C1892.17 929.14 1891.93 921.48 1892.31 915C1892.66 909.23 1893.87 900.9 1895 896.5C1896.13 892.1 1898.92 884.67 1901.2 880C1904.47 873.28 1907.03 869.82 1913.42 863.45C1918.34 858.56 1923.85 854.19 1927.5 852.31C1930.8 850.6 1935.75 848.44 1938.5 847.5C1941.25 846.57 1945.53 845.42 1948 844.95C1950.47 844.49 1956.33 844.29 1961 844.52ZM1937 863.98C1934.53 865.25 1929.8 869.03 1926.5 872.39C1922.61 876.36 1919.22 881.14 1916.84 886C1914.83 890.13 1912.44 896.2 1911.52 899.5C1910.61 902.8 1909.61 910.9 1909.3 917.5C1908.87 926.59 1909.14 931.56 1910.42 938C1911.45 943.19 1913.8 950 1916.45 955.5C1919.28 961.36 1922.57 966.33 1925.9 969.75C1929.14 973.09 1933.64 976.27 1938.25 978.5C1942.24 980.43 1948.2 982.38 1951.5 982.84C1954.8 983.29 1960.42 983.28 1964 982.8C1967.58 982.33 1972.97 980.79 1976 979.39C1979.03 977.98 1983.3 975.53 1985.5 973.94C1987.7 972.35 1991.15 968.9 1993.17 966.28C1995.19 963.65 1998.19 958.8 1999.83 955.5C2001.47 952.2 2003.62 946.58 2004.62 943C2005.98 938.08 2006.43 932.85 2006.44 921.5C2006.46 908.83 2006.1 905.26 2004.17 898.5C2002.91 894.1 2000.25 887.58 1998.26 884C1996.27 880.42 1992.13 874.96 1989.07 871.85C1985.45 868.19 1981.04 865.04 1976.5 862.88C1970.22 859.9 1968.47 859.53 1959.5 859.29C1953.2 859.12 1948.02 859.51 1945.5 860.35C1943.3 861.08 1939.47 862.71 1937 863.98ZM2288 844.62C2291.57 844.87 2296.75 845.57 2299.5 846.18C2302.25 846.79 2306.75 848.26 2309.5 849.46C2312.25 850.65 2317.2 853.45 2320.5 855.66C2323.8 857.88 2328.47 861.9 2330.89 864.6C2333.3 867.29 2336.87 871.98 2338.81 875C2340.76 878.02 2343.62 883.99 2345.17 888.25C2346.73 892.51 2348.68 899.94 2349.51 904.75C2350.34 909.56 2351.02 917.21 2351.01 921.75C2351 926.29 2350.16 934.39 2349.13 939.75C2348.09 945.11 2345.59 953.33 2343.56 958C2341.54 962.67 2338.38 968.52 2336.56 971C2334.73 973.48 2330.37 978.22 2326.87 981.54C2322.96 985.24 2317.61 988.99 2313 991.25C2308.88 993.27 2302.01 995.62 2297.75 996.46C2293.49 997.31 2287.53 998 2284.5 998C2281.47 998 2275.51 997.29 2271.25 996.43C2266.99 995.56 2260.13 993.24 2256 991.26C2250.32 988.54 2246.54 985.71 2240.41 979.58C2233.75 972.94 2231.49 969.81 2227.69 962C2225.15 956.77 2222.34 949.35 2221.45 945.5C2220.56 941.65 2219.46 934.9 2219 930.5C2218.54 926.1 2218.52 918.23 2218.97 913C2219.41 907.77 2220.55 900.35 2221.51 896.5C2222.46 892.65 2224.79 886.13 2226.69 882C2228.6 877.88 2232.31 871.8 2234.95 868.5C2237.58 865.2 2241.71 860.89 2244.12 858.92C2246.53 856.94 2250.53 854.15 2253 852.71C2255.47 851.26 2260.2 849.14 2263.5 847.98C2266.8 846.82 2272.2 845.49 2275.5 845.02C2278.8 844.55 2284.43 844.37 2288 844.62ZM2269 861.58C2266.53 862.52 2261.8 865.17 2258.5 867.47C2254.46 870.29 2250.97 873.92 2247.84 878.58C2245.27 882.39 2242.2 887.98 2241.01 891C2239.82 894.02 2238.17 899.42 2237.35 903C2236.43 906.99 2235.88 914.32 2235.9 922C2235.93 929.88 2236.52 936.72 2237.49 940.5C2238.34 943.8 2240.01 948.98 2241.2 952C2242.39 955.02 2245.01 959.98 2247.02 963C2249.03 966.02 2252.67 970.21 2255.09 972.31C2257.52 974.41 2262.2 977.45 2265.5 979.07C2269.07 980.83 2274.13 982.33 2278 982.78C2281.57 983.2 2287.43 983.19 2291 982.77C2294.57 982.34 2299.75 980.96 2302.5 979.69C2305.25 978.42 2309.56 975.83 2312.09 973.94C2314.61 972.05 2318.19 968.48 2320.03 966C2321.88 963.52 2324.71 958.8 2326.32 955.5C2327.93 952.2 2330.1 946.13 2331.14 942C2332.17 937.88 2333.3 931.13 2333.65 927C2334.01 922.7 2333.75 915.87 2333.04 911C2332.37 906.33 2330.76 899.13 2329.47 895C2328.12 890.65 2325.05 884.35 2322.17 880C2319.43 875.88 2315.46 871.14 2313.35 869.47C2311.23 867.8 2308.15 865.6 2306.5 864.56C2304.85 863.53 2301.7 862.04 2299.5 861.25C2297.3 860.46 2293.01 859.51 2289.96 859.14C2286.91 858.77 2281.96 858.78 2278.96 859.17C2275.96 859.56 2271.47 860.64 2269 861.58ZM2438.75 844.13C2439.99 844.06 2444.26 844.49 2448.25 845.09C2452.39 845.71 2458.5 847.59 2462.5 849.47C2467.5 851.82 2470.66 854.16 2473.56 857.63C2475.79 860.31 2478.61 864.19 2479.81 866.25C2481.02 868.31 2482.99 873.26 2484.19 877.25C2486.32 884.27 2486.4 886.22 2487 994L2473 994L2472.5 985.5C2472.22 980.83 2471.55 977 2471 977C2470.45 977 2465.84 979.87 2460.75 983.38C2455.66 986.9 2448.69 990.95 2445.25 992.38C2441.81 993.82 2436.19 995.67 2432.75 996.49C2429.31 997.3 2423.69 997.98 2420.25 997.99C2416.81 997.99 2410.96 997.33 2407.25 996.51C2403.05 995.59 2398.23 993.58 2394.5 991.2C2390.6 988.71 2387.21 985.46 2384.81 981.93C2382.78 978.95 2380.36 973.8 2379.44 970.5C2378.21 966.13 2377.86 961.93 2378.17 955C2378.51 947.25 2379.1 944.39 2381.38 939.5C2383.14 935.73 2386.31 931.46 2389.9 928C2393.55 924.49 2398.68 921.01 2404.06 918.37C2408.7 916.1 2416.1 913.09 2420.5 911.67C2424.9 910.25 2431.88 908.42 2436 907.58C2440.13 906.75 2449.57 905.16 2457 904.04C2464.43 902.92 2470.54 901.89 2470.59 901.75C2470.65 901.61 2470.34 897.9 2469.92 893.5C2469.49 889.1 2468.46 883.25 2467.63 880.5C2466.8 877.75 2464.62 873.25 2462.78 870.5C2460.21 866.66 2457.93 864.74 2452.96 862.21C2447.16 859.27 2445.63 858.93 2438 858.93C2432.8 858.93 2426.59 859.68 2422 860.87C2417.88 861.95 2411.35 864.26 2407.5 866.01C2403.65 867.76 2398.59 870.5 2396.25 872.09C2393.91 873.69 2391.78 875 2391.5 875C2391.22 875 2389.65 872.75 2388 870C2386.35 867.25 2385 864.44 2385 863.75C2385.01 863.06 2388.72 860.38 2393.25 857.79C2397.79 855.2 2403.19 852.39 2405.25 851.54C2407.31 850.69 2412.26 849.09 2416.25 847.99C2420.24 846.88 2426.43 845.59 2430 845.11C2433.57 844.64 2437.51 844.2 2438.75 844.13ZM2436 920.5C2431.88 921.51 2424.9 923.74 2420.5 925.46C2416.1 927.18 2410.36 930.03 2407.75 931.79C2405.14 933.56 2401.62 936.91 2399.94 939.25C2398.26 941.59 2396.19 945.98 2395.33 949C2394.32 952.6 2394.01 956.05 2394.46 959C2394.83 961.48 2395.55 965.19 2396.06 967.25C2396.58 969.31 2398.51 972.69 2400.35 974.75C2402.19 976.81 2406.13 979.58 2409.1 980.89C2412.24 982.28 2417.22 983.48 2421 983.75C2425.08 984.04 2429.73 983.63 2433.5 982.66C2436.8 981.8 2442.43 979.79 2446 978.18C2449.57 976.57 2456.67 972.16 2461.77 968.38L2471.05 961.5C2471.01 924.69 2470.66 914.03 2470.25 914.08C2469.84 914.12 2463.65 915.17 2456.5 916.41C2449.35 917.65 2440.13 919.49 2436 920.5ZM2754.5 844.15C2756.7 844.11 2762.1 844.72 2766.5 845.51C2770.9 846.3 2777.2 848.26 2780.5 849.86C2783.96 851.55 2789.25 855.48 2793 859.15C2796.57 862.65 2800.7 867.76 2802.18 870.51C2803.65 873.25 2806.07 879.1 2807.56 883.5C2809.98 890.62 2810.31 893.28 2811 924L2706 924L2706.6 928.25C2706.93 930.59 2707.83 935.65 2708.58 939.5C2709.34 943.35 2711.73 950.1 2713.9 954.5C2716.06 958.9 2719.59 964.52 2721.75 967C2723.9 969.48 2728.1 973.12 2731.08 975.11C2734.06 977.09 2739.2 979.72 2742.5 980.95C2746.45 982.43 2751.74 983.37 2758 983.72C2764.92 984.11 2769.26 983.81 2774 982.63C2777.57 981.74 2784.67 978.87 2789.77 976.26C2794.86 973.64 2799.17 971.73 2799.34 972C2799.51 972.27 2800.85 974.64 2802.32 977.25C2803.79 979.86 2804.84 982.56 2804.64 983.25C2804.44 983.94 2800.05 986.62 2794.89 989.22C2789.73 991.82 2782.8 994.65 2779.5 995.51C2776.2 996.38 2769 997.35 2763.5 997.68C2756.28 998.11 2751.28 997.83 2745.5 996.68C2741.1 995.81 2735.25 994.13 2732.5 992.96C2729.75 991.8 2724.37 988.74 2720.54 986.17C2716.66 983.57 2711.21 978.63 2708.22 975C2705.27 971.42 2701.12 964.9 2699 960.5C2696.87 956.1 2694.39 949.8 2693.47 946.5C2692.4 942.63 2691.63 934.99 2691.31 925C2690.9 911.8 2691.13 908.09 2692.89 900C2694.18 894.09 2696.68 887 2699.48 881.25C2702.73 874.59 2705.89 869.99 2710.75 864.84C2714.46 860.89 2720.2 855.93 2723.5 853.8C2726.8 851.66 2731.86 849.04 2734.75 847.96C2737.64 846.88 2742.36 845.6 2745.25 845.12C2748.14 844.63 2752.3 844.2 2754.5 844.15ZM2734.56 863.81C2731.84 865.29 2727.46 868.52 2724.82 871C2722.18 873.48 2718.43 878.2 2716.48 881.5C2714.52 884.8 2711.88 890.88 2710.6 895C2709.31 899.13 2707.98 904.41 2707.63 906.75L2707 911L2796.5 911.02C2795.23 897.44 2793.75 890.13 2792.39 886C2791.04 881.88 2788.26 876.29 2786.22 873.59C2784.17 870.89 2780.93 867.41 2779 865.86C2777.07 864.31 2772.8 862.09 2769.5 860.93C2766.2 859.77 2760.57 858.64 2757 858.41C2752.94 858.16 2748.43 858.59 2745 859.56C2741.97 860.41 2737.28 862.33 2734.56 863.81ZM2910 844.69C2912.47 844.95 2916.02 845.69 2917.88 846.33C2921.05 847.43 2921.22 847.71 2920.64 851C2920.3 852.92 2919.56 856.19 2919.01 858.25C2918.14 861.48 2917.69 861.92 2915.75 861.39C2914.51 861.05 2910.35 860.54 2906.5 860.26C2900.3 859.8 2898.76 860.07 2893.08 862.62C2888.31 864.77 2885.12 867.19 2880.58 872.11C2877.24 875.75 2872.6 882.28 2866.06 894.5L2866 994L2849 994L2849 848L2862.5 847.98L2863.26 854.24C2863.67 857.68 2864 863.2 2863.98 866.5C2863.96 869.8 2864.18 872.84 2864.47 873.25C2864.76 873.66 2866.63 871.64 2868.62 868.75C2870.61 865.86 2874.77 860.91 2877.87 857.74C2880.97 854.57 2885.97 850.66 2889 849.04C2892.03 847.42 2896.97 845.67 2900 845.15C2903.03 844.64 2907.53 844.43 2910 844.69ZM319.89 848L336 848L336.01 897.75C336.01 925.76 336.45 950.23 337.01 953.75C337.55 957.19 338.96 962.59 340.14 965.75C341.46 969.32 343.83 973.03 346.39 975.54C348.77 977.88 352.61 980.31 355.5 981.3C358.32 982.27 363.44 983.02 367.25 983.01C370.96 983.01 376.59 982.19 379.75 981.2C382.91 980.21 387.75 977.88 390.5 976.02C393.25 974.17 396.85 971.54 398.5 970.18C400.15 968.83 404.1 964.74 413.06 954.5L413 848L429 848L429 994L415 994L413.72 970.5L405.57 978.5C401.09 982.9 394.52 988.2 390.96 990.28C387.41 992.36 382.02 994.84 379 995.78C375.1 997 370.3 997.48 362.5 997.42C353.9 997.35 350.3 996.88 346 995.24C342.7 993.98 338.16 991.02 334.66 987.82C331.31 984.77 327.79 980.37 326.4 977.5C325.07 974.75 323.22 970.02 322.3 967C320.83 962.2 320.58 954.33 320.26 904.75L319.89 848Z" />
		<path id="HEKATE - IPL" fill-rule="evenodd" class="shp2" d="M2371 78L2388 78L2388 453L2371 453L2371 78ZM2490.17 77.83L2545.34 78.26C2597.74 78.67 2601.05 78.8 2611.5 80.94C2617.55 82.18 2626.32 84.45 2631 85.98C2635.68 87.5 2642.65 90.35 2646.5 92.3C2650.35 94.25 2656.31 97.9 2659.75 100.42C2663.19 102.94 2668.69 108.26 2671.99 112.25C2675.28 116.24 2679.51 122.65 2681.4 126.5C2683.29 130.35 2685.51 135.53 2686.33 138C2687.15 140.47 2688.65 146.32 2689.66 151C2691.11 157.7 2691.5 163.85 2691.5 180C2691.5 196.04 2691.1 202.35 2689.68 209C2688.68 213.68 2686.69 220.88 2685.26 225C2683.83 229.13 2681.13 235.2 2679.25 238.5C2677.37 241.8 2674.68 246.07 2673.27 248C2671.86 249.93 2668.85 253.44 2666.6 255.82C2664.34 258.2 2659.57 262.32 2656 264.98C2652.43 267.64 2645.9 271.61 2641.5 273.8C2637.1 275.99 2629.9 278.91 2625.5 280.3C2621.1 281.69 2613.68 283.54 2609 284.41C2604.32 285.28 2594.2 286.44 2586.5 286.99C2578.8 287.54 2557.76 287.99 2507 288L2507 453L2490 453L2490.17 77.83ZM2507 271C2556.21 271 2576.57 270.53 2584 269.97C2591.43 269.4 2601.78 268.07 2607 267.02C2612.22 265.96 2619.88 263.9 2624 262.44C2628.13 260.97 2635.04 257.69 2639.38 255.14C2644.22 252.28 2649.6 247.97 2653.38 243.92C2656.74 240.3 2661.04 234.45 2662.92 230.92C2664.8 227.39 2667.4 221.35 2668.71 217.5C2670.02 213.65 2671.74 206.22 2672.54 201C2673.34 195.78 2673.99 186.55 2673.99 180.5C2673.99 174.45 2673.37 165.45 2672.62 160.5C2671.87 155.55 2670.12 148.13 2668.73 144C2667.34 139.88 2664.49 133.57 2662.4 130C2660.3 126.42 2656.77 121.68 2654.54 119.45C2652.32 117.23 2648.03 113.84 2645 111.92C2641.97 110 2636.8 107.23 2633.5 105.78C2630.2 104.32 2623.68 102.01 2619 100.65C2614.32 99.29 2604.43 97.44 2597 96.53C2587.86 95.42 2571.21 94.69 2545.4 94.29L2507.3 93.7L2507 271ZM2767 78L2785 78L2785 437L2943 437L2943 453L2767 453L2767 78ZM80 100L130 100L130 243L291 243L291 100L341 100L341 453L291 453L291 294L130 294L130 453L80 453L80 100ZM446 100L645 100L645 151L496 151L496 251L634 251L634 299L496 299L496 402L645 402L645 453L446 453L446 100ZM738 100L789 100L789.5 271.09L921.5 100.06L983 100L978.16 106.25C975.49 109.69 948.85 144 918.96 182.5C889.07 221 864.62 253.18 864.64 254C864.65 254.82 892.93 299.38 927.47 353C962.01 406.63 990.43 451.06 990.63 451.75C990.92 452.73 984.39 452.95 928.64 452.5L879.29 376C852.16 333.93 829.63 299.41 829.23 299.3C828.83 299.2 819.6 310.67 788.96 350.5L789 453L738 453L738 100ZM1143.96 100L1207 100L1208.38 104.25C1209.14 106.59 1235.74 183.65 1267.49 275.5C1299.24 367.35 1326.07 444.86 1329 453L1276 453L1271.36 438.75C1268.8 430.91 1262.28 411.34 1247 366L1101.5 365.99L1072.5 453.01L1022 453L1022.88 450.75C1023.37 449.51 1050.43 371.1 1083.02 276.5C1115.62 181.9 1142.66 103.49 1143.12 102.25L1143.96 100ZM1146.56 234.29C1131.23 279.51 1118.53 317.06 1118.34 317.75C1118.07 318.74 1129.73 319 1174.25 318.98L1230.5 318.95C1202.06 234.13 1189.44 196.58 1184.11 180.79L1174.43 152.08L1146.56 234.29ZM1354 100L1591 100L1591 153L1498 153L1498 453L1448 453L1448 153L1354 153L1354 100ZM1671 100L1870 100L1870 151L1721 151L1721 251L1860 251L1860 299L1721 299L1721 402L1870 402L1870 453L1671 453L1671 100ZM2021 319L2120 319L2120 335L2021 335L2021 319Z" />
	</g>
</svg>